<?xml version="1.0" standalone="no"?>
<!DOCTYPE svg PUBLIC "-//W3C//DTD SVG 20010904//EN"
 "http://www.w3.org/TR/2001/REC-SVG-20010904/DTD/svg10.dtd">
<svg version="1.0" xmlns="http://www.w3.org/2000/svg"
 width="1700.000000pt" height="300.000000pt" viewBox="0 0 1700.000000 300.000000"
 preserveAspectRatio="xMidYMid meet">

<g transform="translate(0.000000,300.000000) scale(0.100000,-0.100000)"
fill="#000000" stroke="none">
<path d="M7387 2583 c-4 -3 -7 -42 -7 -85 l0 -78 -78 0 c-47 0 -83 -5 -90 -12
-8 -8 -12 -66 -12 -193 0 -127 4 -185 12 -193 7 -7 43 -12 90 -12 l77 0 3 -87
3 -88 83 -3 82 -3 0 -74 c0 -97 8 -105 105 -105 l74 0 3 -82 3 -83 87 -3 88
-3 2 -437 3 -437 83 -3 82 -3 0 -77 c0 -47 5 -83 12 -90 17 -17 549 -17 566 0
7 7 12 43 12 90 l0 78 84 0 c67 0 85 3 90 16 3 9 6 245 6 525 l0 509 69 0
c103 0 101 -2 101 96 l0 83 88 3 87 3 3 88 3 87 77 0 c47 0 83 5 90 12 8 8 12
66 12 193 0 127 -4 185 -12 193 -7 7 -43 12 -90 12 l-77 0 -3 83 -3 82 -279 3
c-197 2 -283 -1 -292 -9 -10 -8 -14 -35 -14 -85 l0 -74 -80 0 c-95 0 -100 -5
-100 -109 l0 -71 -145 0 -144 0 -3 88 -3 87 -82 3 -83 3 0 65 c0 112 22 104
-299 104 -153 0 -281 -3 -284 -7z m343 -283 l0 -60 -78 0 c-47 0 -83 -5 -90
-12 -7 -7 -12 -42 -12 -85 l0 -73 -55 0 -55 0 0 145 0 145 145 0 145 0 0 -60z"/>
<path d="M2630 1940 l0 -50 -50 0 -50 0 0 -345 0 -345 -100 0 -100 0 0 100 0
100 -50 0 -50 0 0 50 0 50 -95 0 -95 0 0 -50 0 -50 -50 0 -50 0 0 -194 0 -195
48 -3 47 -3 3 -47 3 -47 47 -3 47 -3 3 -47 3 -48 390 0 389 0 0 50 0 50 50 0
50 0 0 50 0 50 50 0 50 0 0 440 0 440 -50 0 -50 0 0 50 0 50 -195 0 -195 0 0
-50z m190 -100 l0 -50 -50 0 -50 0 0 -50 0 -50 -45 0 -45 0 0 100 0 100 95 0
95 0 0 -50z"/>
<path d="M3510 1940 l0 -50 50 0 50 0 0 -50 0 -50 -50 0 -50 0 0 -50 0 -50
-50 0 -50 0 0 50 0 50 -50 0 -50 0 0 -390 0 -390 50 0 50 0 0 -50 0 -50 50 0
50 0 0 -50 0 -50 390 0 390 0 0 50 0 50 50 0 50 0 0 50 0 50 45 0 45 0 0 390
0 390 -45 0 -45 0 0 50 0 50 -50 0 -50 0 0 50 0 50 -390 0 -390 0 0 -50z m690
-495 l0 -245 -150 0 -150 0 0 245 0 245 150 0 150 0 0 -245z"/>
<path d="M4880 1940 l0 -50 45 0 45 0 0 -50 0 -50 -45 0 -45 0 0 -50 0 -50
-50 0 -50 0 0 50 0 50 -50 0 -50 0 0 -389 0 -390 48 -3 47 -3 3 -47 3 -47 47
-3 47 -3 3 -48 3 -47 390 0 389 0 0 50 0 50 50 0 50 0 0 50 0 50 50 0 50 0 0
240 0 240 -50 0 -50 0 0 50 0 50 -150 0 -150 0 0 -50 0 -50 -45 0 -45 0 0 -45
0 -45 45 0 45 0 0 -50 0 -50 50 0 50 0 0 -50 0 -50 -145 0 -145 0 0 245 0 245
245 0 245 0 0 50 0 50 50 0 50 0 0 50 0 50 -50 0 -50 0 0 50 0 50 -440 0 -440
0 0 -50z"/>
<path d="M6260 1940 l0 -50 45 0 45 0 0 -50 0 -50 -45 0 -45 0 0 -50 0 -50
-50 0 -50 0 0 50 0 50 -50 0 -50 0 0 -440 0 -440 50 0 50 0 0 -50 0 -50 195 0
195 0 0 50 0 50 50 0 50 0 0 195 0 195 145 0 145 0 0 -195 0 -195 50 0 50 0 0
-50 0 -50 50 0 50 0 0 50 0 50 50 0 50 0 0 440 0 440 -50 0 -50 0 0 50 0 50
-50 0 -50 0 0 50 0 50 -390 0 -390 0 0 -50z m591 -15 c55 -28 105 -82 132
-144 28 -63 20 -171 -16 -234 -70 -119 -199 -171 -332 -132 -48 13 -69 28
-116 75 -64 66 -79 102 -79 195 0 129 89 236 220 266 53 12 139 0 191 -26z"/>
<path d="M6784 1790 c-11 -4 -33 -22 -47 -40 -64 -76 -8 -180 97 -180 43 0 90
38 106 85 28 84 -71 170 -156 135z m121 -70 c0 -18 -6 -26 -23 -28 -13 -2 -25
3 -28 12 -10 26 4 48 28 44 17 -2 23 -10 23 -28z"/>
<path d="M9750 1940 l0 -50 -50 0 -50 0 0 -345 0 -345 -100 0 -100 0 0 100 0
100 -50 0 -50 0 0 50 0 50 -95 0 -95 0 0 -50 0 -50 -50 0 -50 0 0 -194 0 -195
48 -3 47 -3 3 -47 3 -47 47 -3 47 -3 3 -47 3 -48 390 0 389 0 0 50 0 50 50 0
50 0 0 50 0 50 50 0 50 0 0 440 0 440 -50 0 -50 0 0 50 0 50 -195 0 -195 0 0
-50z m190 -100 l0 -50 -50 0 -50 0 0 -50 0 -50 -45 0 -45 0 0 100 0 100 95 0
95 0 0 -50z"/>
<path d="M10630 1940 l0 -50 50 0 50 0 0 -50 0 -50 -50 0 -50 0 0 -50 0 -50
-50 0 -50 0 0 50 0 50 -50 0 -50 0 0 -390 0 -390 50 0 50 0 0 -50 0 -50 50 0
50 0 0 -50 0 -50 390 0 390 0 0 50 0 50 50 0 50 0 0 50 0 50 45 0 45 0 0 390
0 390 -45 0 -45 0 0 50 0 50 -50 0 -50 0 0 50 0 50 -390 0 -390 0 0 -50z m690
-495 l0 -245 -150 0 -150 0 0 245 0 245 150 0 150 0 0 -245z"/>
<path d="M12000 1940 l0 -50 45 0 45 0 0 -50 0 -50 -45 0 -45 0 0 -50 0 -50
-50 0 -50 0 0 50 0 50 -50 0 -50 0 0 -389 0 -390 48 -3 47 -3 3 -47 3 -47 47
-3 47 -3 3 -48 3 -47 390 0 389 0 0 50 0 50 50 0 50 0 0 50 0 50 50 0 50 0 0
240 0 240 -50 0 -50 0 0 50 0 50 -150 0 -150 0 0 -50 0 -50 -45 0 -45 0 0 -45
0 -45 45 0 45 0 0 -50 0 -50 50 0 50 0 0 -50 0 -50 -145 0 -145 0 0 245 0 245
245 0 245 0 0 50 0 50 50 0 50 0 0 50 0 50 -50 0 -50 0 0 50 0 50 -440 0 -440
0 0 -50z"/>
<path d="M13380 1940 l0 -50 45 0 45 0 0 -50 0 -50 -45 0 -45 0 0 -50 0 -50
-50 0 -50 0 0 50 0 50 -50 0 -50 0 0 -440 0 -440 50 0 50 0 0 -50 0 -50 195 0
195 0 0 50 0 50 50 0 50 0 0 195 0 195 145 0 145 0 0 -195 0 -195 50 0 50 0 0
-50 0 -50 50 0 50 0 0 50 0 50 50 0 50 0 0 440 0 440 -50 0 -50 0 0 50 0 50
-50 0 -50 0 0 50 0 50 -390 0 -390 0 0 -50z m611 -15 c55 -28 105 -82 132
-144 28 -63 20 -171 -16 -234 -70 -119 -199 -171 -332 -132 -48 13 -69 28
-116 75 -64 66 -79 102 -79 195 0 129 89 236 220 266 53 12 139 0 191 -26z"/>
<path d="M13924 1790 c-11 -4 -33 -22 -47 -40 -64 -76 -8 -180 97 -180 43 0
90 38 106 85 28 84 -71 170 -156 135z m121 -70 c0 -18 -6 -26 -23 -28 -24 -4
-38 18 -28 44 3 9 15 14 28 12 17 -2 23 -10 23 -28z"/>
</g>
</svg>
